<svg xmlns="http://www.w3.org/2000/svg" viewBox="0 0 311.7 141.73"><defs><style>.cls-1{fill:none;stroke:#fff;stroke-miterlimit:10;}.cls-2{fill:#fff;}</style></defs><title>controllerAsset 2</title><g id="Layer_2" data-name="Layer 2"><g id="Layer_1-2" data-name="Layer 1"><rect class="cls-1" x="0.5" y="0.5" width="310.7" height="140.73"/><rect class="cls-1" x="8.72" y="22.43" width="294.25" height="109.66"/><polygon class="cls-2" points="82.75 66.49 61.97 66.49 61.97 48.02 41.38 48.02 41.38 66.49 20.6 66.49 20.6 88.04 41.38 88.04 41.38 106.5 61.97 106.5 61.97 88.04 82.75 88.04 82.75 66.49"/><path class="cls-2" d="M250.34,105.59H226.58V81.83h23.76Zm-21.93-1.83h20.1V83.66h-20.1Z"/><circle class="cls-2" cx="238.46" cy="93.71" r="7.31"/><path class="cls-2" d="M281.05,105.59H257.29V81.83h23.76Zm-21.94-1.83h20.11V83.66H259.11Z"/><circle class="cls-2" cx="269.17" cy="93.71" r="7.31"/><path class="cls-2" d="M192.17,108.33H119.53a8.47,8.47,0,0,1-8.46-8.46V82.06a8.47,8.47,0,0,1,8.46-8.45h72.64a8.47,8.47,0,0,1,8.46,8.45V99.87A8.47,8.47,0,0,1,192.17,108.33Zm-72.64-32.9a6.64,6.64,0,0,0-6.63,6.63V99.87a6.64,6.64,0,0,0,6.63,6.63h72.64a6.63,6.63,0,0,0,6.63-6.63V82.06a6.64,6.64,0,0,0-6.63-6.63Z"/><rect class="cls-2" x="122.95" y="90.06" width="20.1" height="5.48" rx="1.5"/><rect class="cls-2" x="168.65" y="90.06" width="20.1" height="5.48" rx="1.5"/><rect class="cls-2" x="111.99" y="26.09" width="84.07" height="9.14"/><rect class="cls-2" x="111.99" y="40.71" width="84.07" height="9.14"/><rect class="cls-2" x="111.99" y="55.33" width="84.07" height="9.14"/><rect class="cls-2" x="111.99" y="119.3" width="84.07" height="9.14"/><path class="cls-2" d="M234.83,43.82a3.52,3.52,0,0,1-2.31.68h-1.91v3.31h-1.92V38.6h4a3.23,3.23,0,0,1,2.18.71,2.8,2.8,0,0,1,.81,2.21A2.85,2.85,0,0,1,234.83,43.82Zm-1.47-3.32a1.55,1.55,0,0,0-1-.3h-1.73v2.71h1.73a1.46,1.46,0,0,0,1-.33,1.33,1.33,0,0,0,.37-1A1.27,1.27,0,0,0,233.36,40.5Z"/><path class="cls-2" d="M237.31,49.11h.22a2.75,2.75,0,0,0,.5,0,.84.84,0,0,0,.4-.15.93.93,0,0,0,.29-.44,1.18,1.18,0,0,0,.12-.41L236.34,41h2l1.48,5,1.41-5h1.89l-2.33,6.69a9.42,9.42,0,0,1-1.07,2.41,2.05,2.05,0,0,1-1.58.46h-.38l-.43,0Z"/><path class="cls-2" d="M247.52,41a2.17,2.17,0,0,1,1,1V41h1.74v6.46a3.54,3.54,0,0,1-.45,2,3.24,3.24,0,0,1-2.92,1.15,4,4,0,0,1-2.13-.51,1.89,1.89,0,0,1-.91-1.53h1.93a.75.75,0,0,0,.25.45,1.51,1.51,0,0,0,1,.24,1.28,1.28,0,0,0,1.28-.64,3.29,3.29,0,0,0,.21-1.39v-.43a2.14,2.14,0,0,1-.54.65,2.25,2.25,0,0,1-1.39.41,2.62,2.62,0,0,1-2.09-.92,3.76,3.76,0,0,1-.79-2.5,4.23,4.23,0,0,1,.76-2.55,2.49,2.49,0,0,1,2.14-1A2.4,2.4,0,0,1,247.52,41Zm.61,4.88a2.2,2.2,0,0,0,.43-1.5,2.3,2.3,0,0,0-.41-1.47,1.33,1.33,0,0,0-1.09-.51,1.29,1.29,0,0,0-1.29.88,3.23,3.23,0,0,0-.19,1.16,2.66,2.66,0,0,0,.2,1,1.3,1.3,0,0,0,1.3.87A1.37,1.37,0,0,0,248.13,45.87Z"/><path class="cls-2" d="M254.66,43.67a3.44,3.44,0,0,0,.72-.16.54.54,0,0,0,.38-.51.58.58,0,0,0-.3-.57,1.78,1.78,0,0,0-.86-.16,1.14,1.14,0,0,0-.91.31,1.31,1.31,0,0,0-.25.62h-1.72a2.65,2.65,0,0,1,.51-1.47,2.94,2.94,0,0,1,2.43-.89,4.33,4.33,0,0,1,2,.44,1.69,1.69,0,0,1,.87,1.67v3.13c0,.21,0,.48,0,.78a.93.93,0,0,0,.11.48.55.55,0,0,0,.26.2v.27H256a2.33,2.33,0,0,1-.11-.39c0-.12,0-.26-.05-.41a3.85,3.85,0,0,1-.86.68,2.56,2.56,0,0,1-1.3.33,2.29,2.29,0,0,1-1.54-.53A1.89,1.89,0,0,1,251.5,46a1.94,1.94,0,0,1,1-1.82,4.3,4.3,0,0,1,1.57-.44Zm1.09.83a2.7,2.7,0,0,1-.34.17l-.48.12-.41.07a2.5,2.5,0,0,0-.81.25.8.8,0,0,0-.42.75.78.78,0,0,0,.25.66,1,1,0,0,0,.63.21,1.89,1.89,0,0,0,1.07-.34,1.43,1.43,0,0,0,.51-1.23Z"/><path class="cls-2" d="M267.58,41a2,2,0,0,1,1.18,1.49,6.28,6.28,0,0,1,.06,1v4.29H267V43.47a1.49,1.49,0,0,0-.12-.64.9.9,0,0,0-.88-.47,1,1,0,0,0-1,.61,1.87,1.87,0,0,0-.15.78v4.06H263V43.75a2.36,2.36,0,0,0-.12-.88.88.88,0,0,0-.89-.49,1,1,0,0,0-1,.49,1.87,1.87,0,0,0-.14.84v4.1h-1.81V41h1.73v1a2.8,2.8,0,0,1,.63-.75,2.47,2.47,0,0,1,2.6-.06,2.06,2.06,0,0,1,.59.82,2.28,2.28,0,0,1,.86-.88,2.65,2.65,0,0,1,1.23-.28A2.51,2.51,0,0,1,267.58,41Z"/><path class="cls-2" d="M274.89,41.14a2.71,2.71,0,0,1,1.18,1,3.35,3.35,0,0,1,.54,1.41,8.23,8.23,0,0,1,.06,1.35h-5a1.65,1.65,0,0,0,.72,1.44,1.81,1.81,0,0,0,1,.25,1.52,1.52,0,0,0,1-.31,1.5,1.5,0,0,0,.36-.47h1.82a2.21,2.21,0,0,1-.66,1.23,3.28,3.28,0,0,1-2.56,1,3.7,3.7,0,0,1-2.4-.84,3.32,3.32,0,0,1-1-2.73,3.66,3.66,0,0,1,.94-2.71,3.27,3.27,0,0,1,2.43-.94A3.72,3.72,0,0,1,274.89,41.14Zm-2.66,1.53a1.83,1.83,0,0,0-.47,1.06h3.06a1.49,1.49,0,0,0-.47-1.08,1.59,1.59,0,0,0-1.06-.37A1.41,1.41,0,0,0,272.23,42.67Z"/></g></g></svg>