<svg xmlns="http://www.w3.org/2000/svg" xmlns:xlink="http://www.w3.org/1999/xlink" viewBox="0 0 567.87 564.52"><defs><style>.cls-1,.cls-2,.cls-5,.cls-8,.cls-9{fill:none;}.cls-2,.cls-5{stroke:#fb8449;}.cls-11,.cls-12,.cls-13,.cls-2,.cls-5,.cls-8,.cls-9{stroke-miterlimit:10;}.cls-3{isolation:isolate;}.cls-4{clip-path:url(#clip-path);}.cls-5{stroke-width:9px;opacity:0.39;mix-blend-mode:multiply;}.cls-6{clip-path:url(#clip-path-2);}.cls-11,.cls-7{fill:#fff;}.cls-12,.cls-13,.cls-8,.cls-9{stroke:#fff;}.cls-8{stroke-width:7px;}.cls-12,.cls-13,.cls-9{stroke-width:2px;}.cls-10{opacity:0.17;}.cls-11{stroke:#000;opacity:0.35;}.cls-12,.cls-13{fill:#fb8449;}.cls-13{fill-rule:evenodd;}</style><clipPath id="clip-path"><rect class="cls-1" x="196.83" y="21.12" width="258.45" height="534.56" rx="35.33"/></clipPath><clipPath id="clip-path-2"><rect class="cls-2" x="196.83" y="21.12" width="258.45" height="534.56" rx="35.33"/></clipPath></defs><title>phoneAsset 3</title><g class="cls-3"><g id="Layer_2" data-name="Layer 2"><g id="Layer_1-2" data-name="Layer 1"><rect class="cls-5" x="196.83" y="21.12" width="258.45" height="534.56" rx="35.33"/><g class="cls-6"><rect class="cls-2" x="0.5" y="0.5" width="566.87" height="561.48"/></g><rect class="cls-2" x="196.83" y="21.12" width="258.45" height="534.56" rx="35.33"/><path class="cls-7" d="M386.34,42.7H265.77A12.15,12.15,0,0,1,254,33.58a16.48,16.48,0,0,0-3.08-6.35L249.12,25H403l-1.81,2.23a16.48,16.48,0,0,0-3.08,6.35A12.15,12.15,0,0,1,386.34,42.7Z"/><rect class="cls-8" x="196.83" y="21.12" width="258.45" height="534.56" rx="35.33"/><rect class="cls-8" x="189.97" y="15.78" width="272.16" height="545.23" rx="43.21"/><line class="cls-9" x1="267.15" y1="539.31" x2="384.96" y2="539.31"/><g class="cls-10"><rect class="cls-9" x="203.13" y="28.02" width="245" height="520"/><line class="cls-9" x1="203.13" y1="531.24" x2="448.13" y2="531.24"/><line class="cls-9" x1="203.13" y1="514.47" x2="448.13" y2="514.47"/><line class="cls-9" x1="203.13" y1="497.69" x2="448.13" y2="497.69"/><line class="cls-9" x1="203.13" y1="480.92" x2="448.13" y2="480.92"/><line class="cls-9" x1="203.13" y1="464.15" x2="448.13" y2="464.15"/><line class="cls-9" x1="203.13" y1="447.37" x2="448.13" y2="447.37"/><line class="cls-9" x1="203.13" y1="430.6" x2="448.13" y2="430.6"/><line class="cls-9" x1="203.13" y1="413.82" x2="448.13" y2="413.82"/><line class="cls-9" x1="203.13" y1="397.05" x2="448.13" y2="397.05"/><line class="cls-9" x1="203.13" y1="380.28" x2="448.13" y2="380.28"/><line class="cls-9" x1="203.13" y1="363.5" x2="448.13" y2="363.5"/><line class="cls-9" x1="203.13" y1="346.73" x2="448.13" y2="346.73"/><line class="cls-9" x1="203.13" y1="329.95" x2="448.13" y2="329.95"/><line class="cls-9" x1="203.13" y1="313.18" x2="448.13" y2="313.18"/><line class="cls-9" x1="203.13" y1="296.4" x2="448.13" y2="296.4"/><line class="cls-9" x1="203.13" y1="279.63" x2="448.13" y2="279.63"/><line class="cls-9" x1="203.13" y1="262.86" x2="448.13" y2="262.86"/><line class="cls-9" x1="203.13" y1="246.08" x2="448.13" y2="246.08"/><line class="cls-9" x1="203.13" y1="229.31" x2="448.13" y2="229.31"/><line class="cls-9" x1="203.13" y1="212.53" x2="448.13" y2="212.53"/><line class="cls-9" x1="203.13" y1="195.76" x2="448.13" y2="195.76"/><line class="cls-9" x1="203.13" y1="178.98" x2="448.13" y2="178.98"/><line class="cls-9" x1="203.13" y1="162.21" x2="448.13" y2="162.21"/><line class="cls-9" x1="203.13" y1="145.44" x2="448.13" y2="145.44"/><line class="cls-9" x1="203.13" y1="128.66" x2="448.13" y2="128.66"/><line class="cls-9" x1="203.13" y1="111.89" x2="448.13" y2="111.89"/><line class="cls-9" x1="203.13" y1="95.11" x2="448.13" y2="95.11"/><line class="cls-9" x1="203.13" y1="78.34" x2="448.13" y2="78.34"/><line class="cls-9" x1="203.13" y1="61.57" x2="448.13" y2="61.57"/><line class="cls-9" x1="203.13" y1="44.79" x2="448.13" y2="44.79"/><line class="cls-9" x1="432.82" y1="28.02" x2="432.82" y2="548.02"/><line class="cls-9" x1="417.51" y1="28.02" x2="417.51" y2="548.02"/><line class="cls-9" x1="402.2" y1="28.02" x2="402.2" y2="548.02"/><line class="cls-9" x1="386.88" y1="28.02" x2="386.88" y2="548.02"/><line class="cls-9" x1="371.57" y1="28.02" x2="371.57" y2="548.02"/><line class="cls-9" x1="356.26" y1="28.02" x2="356.26" y2="548.02"/><line class="cls-9" x1="340.95" y1="28.02" x2="340.95" y2="548.02"/><line class="cls-9" x1="325.63" y1="28.02" x2="325.63" y2="548.02"/><line class="cls-9" x1="310.32" y1="28.02" x2="310.32" y2="548.02"/><line class="cls-9" x1="295.01" y1="28.02" x2="295.01" y2="548.02"/><line class="cls-9" x1="279.7" y1="28.02" x2="279.7" y2="548.02"/><line class="cls-9" x1="264.38" y1="28.02" x2="264.38" y2="548.02"/><line class="cls-9" x1="249.07" y1="28.02" x2="249.07" y2="548.02"/><line class="cls-9" x1="233.76" y1="28.02" x2="233.76" y2="548.02"/><line class="cls-9" x1="218.45" y1="28.02" x2="218.45" y2="548.02"/></g><rect class="cls-11" x="218.63" y="78.52" width="214" height="27" rx="13.5"/><rect class="cls-11" x="217.63" y="111.52" width="217" height="78" rx="13.5"/><rect class="cls-11" x="233.63" y="123.52" width="55" height="55" rx="27.5"/><rect class="cls-11" x="309.63" y="138.52" width="108" height="11"/><rect class="cls-11" x="309.63" y="158.52" width="62" height="9"/><rect class="cls-11" x="218.63" y="212.52" width="160" height="160"/><circle class="cls-12" cx="218.13" cy="212.02" r="2"/><circle class="cls-12" cx="379.13" cy="212.02" r="2"/><circle class="cls-12" cx="218.13" cy="372.02" r="2"/><circle class="cls-12" cx="379.13" cy="373.02" r="2"/><path class="cls-13" d="M381.14,392.72c-.75-6.61-1.51-13.22-2.27-19.87L396.14,383v0h-.22l-9.86-.1a.79.79,0,0,0-.89.58l-3.9,9.09c0,.06-.05.12-.08.17Z"/></g></g></g></svg>